<?xml version="1.0" encoding="UTF-8"?>
<svg width="30px" height="48px" viewBox="0 0 30 48" version="1.1" xmlns="http://www.w3.org/2000/svg" xmlns:xlink="http://www.w3.org/1999/xlink">
    <!-- Generator: Sketch 48.2 (47327) - http://www.bohemiancoding.com/sketch -->
    <title>iso</title>
    <desc>Created with Sketch.</desc>
    <defs></defs>
    <g id="Globant-Home" stroke="none" stroke-width="1" fill="none" fill-rule="evenodd" transform="translate(-132.000000, -872.000000)">
        <g id="Footer" transform="translate(0.000000, 800.000000)" fill="#C1D82F">
            <g id="iso" transform="translate(132.000000, 72.000000)">
                <path d="M2.65654423,26.7392543 C1.12760272,24.9636149 -0.805236495,26.9740969 0.35334898,28.2600035 C4.78085053,31.7883708 6.36709241,40.4689563 0.525250082,45.4450426 C-0.760514257,47.0631656 1.00880928,48.8345091 2.54753378,47.570082 C3.50067647,46.8397787 14.7539096,37.6809161 14.7539096,37.6809161 C14.7539096,37.6809161 5.02961798,28.9244363 2.65654423,26.7392543 Z M2.65654423,0.700361672 C1.12900029,-1.07527773 -0.803838925,0.933772335 0.35334898,2.21967893 C4.78085053,5.74804625 6.36709241,14.4286318 0.525250082,19.4018541 C-0.760514257,21.0185451 1.00880928,22.7941845 2.54753378,21.5326213 C3.50067647,20.80375 14.7539096,11.6377276 14.7539096,11.6377276 C14.7539096,11.6377276 5.02961798,2.88554371 2.65654423,0.700361672 Z M17.9054298,14.3498736 C16.3736931,12.5713702 14.4492393,14.5847162 15.6022345,15.8706228 C20.0353264,19.3989901 21.6131828,28.0795756 15.7769308,33.0556618 C14.4883713,34.6694889 16.26049,36.4422644 17.7992145,35.1807013 C18.7523572,34.4518299 30,25.2915354 30,25.2915354 C30,25.2915354 20.2799011,16.5364876 17.9054298,14.3498736 Z" id="Shape"></path>
            </g>
        </g>
    </g>
</svg>