<svg xmlns="http://www.w3.org/2000/svg" viewBox="0 0 253 51"><defs><style>.cls-1{fill:#00007c;}</style></defs><title>logo-purple</title><g id="Layer_2" data-name="Layer 2"><g id="Layer_1-2" data-name="Layer 1"><path class="cls-1" d="M209.06,11.93h7.06V45h-5.4l-14-19.3V45h-7.07v-33h5.87l13.58,18.7Z"/><path class="cls-1" d="M253,28.45a16.68,16.68,0,0,1-5.3,12.19,16,16,0,0,1-11,4.32,16.52,16.52,0,0,1,0-33A16,16,0,0,1,245,14.2l-3.48,6a9.25,9.25,0,0,0-4.74-1.3,9.53,9.53,0,0,0,0,19,9.29,9.29,0,0,0,4.42-1.11A9.6,9.6,0,0,0,245,33h-8.24V26h16.08A17,17,0,0,1,253,28.45Z"/><path class="cls-1" d="M123.48,11.84A16.56,16.56,0,1,0,139.81,28.4,16.44,16.44,0,0,0,123.48,11.84Zm0,26.06a9.47,9.47,0,1,1,9.39-9.47A9.43,9.43,0,0,1,123.48,37.9Z"/><path class="cls-1" d="M102.05,35.28A9.27,9.27,0,0,1,95.6,37.9a9.5,9.5,0,0,1,0-19,9.27,9.27,0,0,1,6.45,2.62l5-4.95a16.09,16.09,0,0,0-11.4-4.73A16.56,16.56,0,0,0,95.6,45,16.09,16.09,0,0,0,107,40.23Z"/><path class="cls-1" d="M154.6,45H143.92v-33H155A16.52,16.52,0,0,1,171.5,28.2C171.62,37.42,163.81,45,154.6,45ZM151,37.84H155a9.42,9.42,0,0,0,9.38-10.15A9.71,9.71,0,0,0,154.64,19H151Z"/><rect class="cls-1" x="176.14" y="11.91" width="7.07" height="33.05"/><path class="cls-1" d="M28.3,0,0,51H51L79.3,0Zm10,45.57a1.26,1.26,0,0,1-1.12-.64l-8.58-16L20,44.93a1.26,1.26,0,0,1-1.11.64H10.75L28.6,12.29,46.45,45.57ZM50.79,19.14V26H43.93V19.14H37.08V12.28h6.86V5.43h6.85v6.85h6.86v6.86Z"/></g></g></svg>