<svg xmlns="http://www.w3.org/2000/svg" viewBox="0 0 198.43 40"><defs><style>.cls-1{fill:#fff;}</style></defs><title>logo-white</title><g id="Layer_2" data-name="Layer 2"><g id="Layer_1-2" data-name="Layer 1"><path class="cls-1" d="M164,9.36h5.54v25.9h-4.24l-11-15.14V35.26h-5.55V9.37h4.61L164,24Z"/><path class="cls-1" d="M198.43,22.31a13.06,13.06,0,0,1-4.15,9.56,12.59,12.59,0,0,1-8.6,3.39,13,13,0,0,1,0-25.9,12.54,12.54,0,0,1,6.45,1.78l-2.73,4.72a7.23,7.23,0,0,0-3.72-1,7.47,7.47,0,0,0,0,14.94,7.22,7.22,0,0,0,3.46-.87,7.49,7.49,0,0,0,3-3h-6.46V20.36h12.61A14,14,0,0,1,198.43,22.31Z"/><path class="cls-1" d="M96.85,9.28a13,13,0,1,0,12.81,13A12.91,12.91,0,0,0,96.85,9.28Zm0,20.45a7.43,7.43,0,1,1,7.36-7.43A7.39,7.39,0,0,1,96.85,29.73Z"/><path class="cls-1" d="M80,27.67A7.28,7.28,0,0,1,75,29.73a7.46,7.46,0,0,1,0-14.91A7.28,7.28,0,0,1,80,16.88L83.92,13A12.59,12.59,0,0,0,75,9.28a13,13,0,0,0,0,26,12.62,12.62,0,0,0,8.94-3.71Z"/><path class="cls-1" d="M121.25,35.26h-8.37V9.35h8.72a13,13,0,0,1,12.92,12.78A13.21,13.21,0,0,1,121.25,35.26Zm-2.84-5.58h3.19a7.38,7.38,0,0,0,7.35-8,7.6,7.6,0,0,0-7.66-6.84h-2.88Z"/><rect class="cls-1" x="138.15" y="9.34" width="5.55" height="25.92"/><path class="cls-1" d="M22.19,0,0,40H40L62.19,0ZM30,35.74a1,1,0,0,1-.88-.5L22.43,22.69,15.7,35.24a1,1,0,0,1-.87.5H8.43l14-26.1,14,26.1ZM39.84,15v5.38H34.46V15H29.08V9.63h5.38V4.26h5.38V9.63h5.37V15Z"/></g></g></svg>